<svg id="Camada_1" data-name="Camada 1" xmlns="http://www.w3.org/2000/svg" xmlns:xlink="http://www.w3.org/1999/xlink" viewBox="0 0 70.78 61"><defs><style>.cls-1{fill:url(#Gradiente_sem_nome);}.cls-2{fill:url(#Gradiente_sem_nome_2);}</style><linearGradient id="Gradiente_sem_nome" x1="-327" y1="-7646.23" x2="-316.74" y2="-7656.47" gradientTransform="translate(385.4 7705.1)" gradientUnits="userSpaceOnUse"><stop offset="0" stop-color="#fff" stop-opacity="0.7"/><stop offset="1" stop-color="#fff"/></linearGradient><linearGradient id="Gradiente_sem_nome_2" x1="-385.85" y1="-7650.07" x2="-336.54" y2="-7699.41" gradientTransform="translate(385.4 7705.1)" gradientUnits="userSpaceOnUse"><stop offset="0" stop-color="#fff" stop-opacity="0.6"/><stop offset="1" stop-color="#fff"/></linearGradient></defs><title>Prancheta 1</title><g id="Camada_2" data-name="Camada 2"><g id="NAV"><g id="Camada_2-2" data-name="Camada 2-2"><g id="header"><circle class="cls-1" cx="63.53" cy="53.75" r="7.25"/><path class="cls-2" d="M7.38,59.93A7,7,0,0,1,1,50a6.65,6.65,0,0,1,6.18-4H31.92A3.86,3.86,0,0,0,33,38.44L12,32.87A16.79,16.79,0,0,1,16.53,0h23.8a6.69,6.69,0,0,1,6.21,4.06A7,7,0,0,1,40.14,14H17a3.86,3.86,0,0,0-1.06,7.58l21,5.53A16.77,16.77,0,0,1,32.38,60Z"/></g></g></g></g></svg>