<?xml version="1.0" encoding="utf-8"?>
<!-- Generator: Adobe Illustrator 21.1.0, SVG Export Plug-In . SVG Version: 6.00 Build 0)  -->
<svg version="1.1" id="Camada_1" xmlns="http://www.w3.org/2000/svg" xmlns:xlink="http://www.w3.org/1999/xlink" x="0px" y="0px"
	 viewBox="0 0 1366 77" style="enable-background:new 0 0 1366 77;" xml:space="preserve">
<style type="text/css">
	.st0{clip-path:url(#SVGID_2_);}
	.st1{clip-path:url(#SVGID_4_);}
	.st2{fill:url(#SVGID_5_);}
	.st3{fill:#FFFFFF;}
	.st4{fill:url(#SVGID_6_);}
	.st5{opacity:0.5;enable-background:new    ;}
</style>
<title>NAVAtivo 5</title>
<g>
	<g>
		<g id="Camada_2">
			<defs>
				<rect id="SVGID_1_" width="1366" height="77"/>
			</defs>
			<clipPath id="SVGID_2_">
				<use xlink:href="#SVGID_1_"  style="overflow:visible;"/>
			</clipPath>
			<g id="NAV" class="st0">
				<g>
					<g id="Layer_1">
						<defs>
							<rect id="SVGID_3_" width="1366" height="692"/>
						</defs>
						<clipPath id="SVGID_4_">
							<use xlink:href="#SVGID_3_"  style="overflow:visible;"/>
						</clipPath>
						<g class="st1">
							
								<linearGradient id="SVGID_5_" gradientUnits="userSpaceOnUse" x1="5464.2026" y1="-9302.6572" x2="5464.2026" y2="-10717.958" gradientTransform="matrix(0.5 -0.87 0.87 0.5 6499.4219 9805.3096)">
								<stop  offset="0" style="stop-color:#FFC732"/>
								<stop  offset="1" style="stop-color:#FF8632"/>
							</linearGradient>
							<path class="st2" d="M1139.1,402.3c-59.4,102.9-155.4,176.6-270.2,207.3s-234.8,15-337.7-44.5L76.3,302.5
								c-103-59.4-176.6-155.4-207.4-270.2s-15-234.8,44.5-337.7S68.8-482,183.6-512.8s234.7-15,337.7,44.5l454.9,262.6
								c102.9,59.4,176.6,155.4,207.3,270.2S1198.5,299.3,1139.1,402.3z"/>
							
								<image style="overflow:visible;opacity:0.3;enable-background:new    ;" width="1007" height="725" xlink:href="850FD6B8.png"  transform="matrix(1 0 0 0.9986 -444 -38)">
							</image>
							<path class="st3" d="M461.9,546.8c-21.6,37.4-69.3,50.2-106.7,28.6l0,0l-670.4-387.1c-37.3-21.6-50.1-69.3-28.6-106.7
								c21.6-37.3,69.3-50.1,106.7-28.6l670.4,387.1C470.7,461.7,483.5,509.4,461.9,546.8L461.9,546.8z"/>
							
								<image style="overflow:visible;opacity:0.3;enable-background:new    ;" width="3107" height="2105" xlink:href="850FD6B9.png"  transform="matrix(1 0 0 0.9995 -1258 -1351)">
							</image>
							
								<linearGradient id="SVGID_6_" gradientUnits="userSpaceOnUse" x1="-1555.1033" y1="-10733.3545" x2="1372.8247" y2="-10733.3545" gradientTransform="matrix(1 0 0 1 385.4 10424.0996)">
								<stop  offset="0" style="stop-color:#FFC732"/>
								<stop  offset="0.23" style="stop-color:#FFC232"/>
								<stop  offset="0.5" style="stop-color:#FFB432"/>
								<stop  offset="0.78" style="stop-color:#FF9D32"/>
								<stop  offset="1" style="stop-color:#FF8632"/>
							</linearGradient>
							<path class="st4" d="M1721.1,514.5c-76.3,132.2-245.4,177.5-377.5,101.2l0,0l-2372.9-1370
								c-132.8-75.2-179.6-243.8-104.4-376.6s243.8-179.6,376.6-104.4c1.4,0.8,2.8,1.6,4.2,2.4L1620,137
								C1752.2,213.3,1797.5,382.3,1721.1,514.5L1721.1,514.5z"/>
						</g>
					</g>
				</g>
				<rect class="st5" width="1365.5" height="77"/>
			</g>
		</g>
	</g>
</g>
</svg>
